<svg width="28" height="30" viewBox="0 0 28 30" fill="none" xmlns="http://www.w3.org/2000/svg">
<mask id="mask0_517_444" style="mask-type:alpha" maskUnits="userSpaceOnUse" x="0" y="0" width="28" height="30">
<path d="M8.89428 26.3647C8.89428 28.366 7.27197 29.9883 5.27075 29.9883C3.26953 29.9883 1.64722 28.366 1.64722 26.3647C1.64722 24.3635 3.26953 22.7412 5.27075 22.7412C7.27197 22.7412 8.89428 24.3635 8.89428 26.3647Z" fill="#C4C4C4"/>
<path d="M26.3533 26.3647C26.3533 28.366 24.731 29.9883 22.7297 29.9883C20.7285 29.9883 19.1062 28.366 19.1062 26.3647C19.1062 24.3635 20.7285 22.7412 22.7297 22.7412C24.731 22.7412 26.3533 24.3635 26.3533 26.3647Z" fill="#C4C4C4"/>
<path fill-rule="evenodd" clip-rule="evenodd" d="M25.1913 23.7058C25.4382 23.9345 25.4094 24.3209 25.1508 24.5363C23.7802 25.6779 22.0174 26.3647 20.0941 26.3647H19.7649C19.401 26.3647 19.0998 26.0671 19.1652 25.7091C19.4737 24.0209 20.9522 22.7412 22.7296 22.7412C23.68 22.7412 24.545 23.1071 25.1913 23.7058ZM27.0987 22.1282C26.8986 22.5093 26.3844 22.543 26.0504 22.2717C25.144 21.5354 23.9883 21.0942 22.7296 21.0942C20.0414 21.0942 17.8233 23.1066 17.4996 25.7072C17.4547 26.0682 17.164 26.3647 16.8002 26.3647H11.2C10.8361 26.3647 10.5455 26.0682 10.5006 25.7072C10.1769 23.1066 7.95876 21.0942 5.27059 21.0942C4.0118 21.0942 2.85608 21.5354 1.94969 22.2718C1.61563 22.5431 1.10145 22.5094 0.901402 22.1283C0.32571 21.0317 0 19.7833 0 18.4588V16.8116C0 16.4478 0.294965 16.1528 0.658823 16.1528H27.3412C27.705 16.1528 28 16.4478 28 16.8116V18.4588C28 19.7832 27.6743 21.0316 27.0987 22.1282ZM28 13.8469C28 14.2108 27.705 14.5057 27.3412 14.5057H0.658824C0.294965 14.5057 0 14.2108 0 13.8469V9.89402C0 9.53016 0.294965 9.2352 0.658823 9.2352H27.3412C27.705 9.2352 28 9.53016 28 9.89402V13.8469ZM7.90588 0.0117188C3.883 0.0117188 0.561907 3.0164 0.0643695 6.904C0.0168356 7.27541 0.318678 7.58814 0.693122 7.58814H27.3069C27.6813 7.58814 27.9832 7.27541 27.9356 6.904C27.4381 3.0164 24.117 0.0117188 20.0941 0.0117188H7.90588ZM5.27059 22.7412C7.04795 22.7412 8.52644 24.0209 8.83496 25.7091C8.90037 26.0671 8.59914 26.3647 8.23528 26.3647H7.90588C5.98268 26.3647 4.21987 25.6779 2.84928 24.5364C2.59074 24.321 2.56193 23.9345 2.80878 23.7059C3.45509 23.1072 4.3201 22.7412 5.27059 22.7412Z" fill="#C4C4C4"/>
</mask>
<g mask="url(#mask0_517_444)">
<path d="M-1.64722 -2.29395H31.9528V8.57664H-1.64722V-2.29395Z" fill="url(#paint0_linear_517_444)"/>
<path d="M-1.64722 15.4941H31.9528V31.9647H-1.64722V15.4941Z" fill="#FFA833"/>
<path d="M-1.64722 12.2002C-1.64722 10.199 -0.0249081 8.57666 1.97631 8.57666H28.3293C30.3305 8.57666 31.9528 10.199 31.9528 12.2002C31.9528 14.2014 30.3305 15.8237 28.3293 15.8237H1.97631C-0.0249081 15.8237 -1.64722 14.2014 -1.64722 12.2002Z" fill="#F17228"/>
<path d="M-23.0586 22.7412H8.89435V29.9883H-23.0586V22.7412Z" fill="#F58D00"/>
<path d="M19.1062 22.7412H51.0591V29.9883H19.1062V22.7412Z" fill="#F58D00"/>
<path d="M9.04697 2.46715C9.14528 2.7252 8.80659 3.09378 8.29049 3.2904C7.77438 3.48701 7.27631 3.43721 7.178 3.17916C7.07969 2.92111 7.41838 2.55253 7.93449 2.35591C8.45059 2.1593 8.94866 2.2091 9.04697 2.46715Z" fill="white"/>
<path d="M15 2.5C15 2.77614 14.5523 3 14 3C13.4477 3 13 2.77614 13 2.5C13 2.22386 13.4477 2 14 2C14.5523 2 15 2.22386 15 2.5Z" fill="white"/>
<path d="M19.9996 3.3835C19.8694 3.62706 19.3691 3.61351 18.8819 3.35325C18.3948 3.09299 18.1054 2.68456 18.2356 2.441C18.3657 2.19744 18.8661 2.21099 19.3532 2.47125C19.8403 2.73152 20.1297 3.13994 19.9996 3.3835Z" fill="white"/>
</g>
<defs>
<linearGradient id="paint0_linear_517_444" x1="14.9999" y1="-0.5" x2="14.9999" y2="17" gradientUnits="userSpaceOnUse">
<stop stop-color="#FFD16D"/>
<stop offset="1" stop-color="#FF7A00"/>
</linearGradient>
</defs>
</svg>
